{"title":"Community S05E09 x264 AAC E-Subs [GWC].mp4","uid":9758732,"size":77727575,"categoryP":"video","categoryS":"tv_shows","magnet":"?xt=urn:btih:494eddfc0d650b3a268b647e8aea8dcf5f92b780&amp;dn=Community+S05E09+x264+AAC+E-Subs+%5BGWC%5D.mp4&amp;tr=udp%3A%2F%2Ftracker.openbittorrent.com%3A80&amp;tr=udp%3A%2F%2Fopen.demonii.com%3A1337&amp;tr=udp%3A%2F%2Ftracker.coppersurfer.tk%3A6969&amp;tr=udp%3A%2F%2Fexodus.desync.com%3A6969","seeders":1,"leechers":0,"uploader":"canc232","files":1,"time":1394779461,"description":"Community S05E09 x264 AAC E-Subs [GWC]\n\n\nStoryline :\nA lawyer is scuppered when it is discovered that he has falsely claimed to have a bachelor's degree. He is suspended and enrolls himself into Community college. He forms a study group so that he can get closer to an attractive student. The study group includes a millionaire, a former drug addict, a former quarter-back, a single mother, and a film student. \n\n\nSCREENS : &lt;a href=&quot;\nhttp://i.imgur.com/k2HOkFO.jpg&quot; rel=&quot;nofollow&quot; target=&quot;_NEW&quot;&gt;\nhttp://i.imgur.com/k2HOkFO.jpg&lt;/a&gt; &lt;a href=&quot;\nhttp://i.imgur.com/7ENHcV7.jpg&quot; rel=&quot;nofollow&quot; target=&quot;_NEW&quot;&gt;\nhttp://i.imgur.com/7ENHcV7.jpg&lt;/a&gt; &lt;a href=&quot;\nhttp://i.imgur.com/AFW2ECg.jpg&quot; rel=&quot;nofollow&quot; target=&quot;_NEW&quot;&gt;\nhttp://i.imgur.com/AFW2ECg.jpg&lt;/a&gt;\n\n\nMEDIA INFO :\nGeneral \nFormat : MPEG-4 \nFormat profile : Base Media \nFile size : 74.1 MiB \nDuration : 21mn 18s \nOverall bit rate mode : Variable \nOverall bit rate : 486 Kbps  \n\nVideo \nFormat : AVC \nFormat profile : &lt;a class=&quot;__cf_email__&quot; href=&quot;/cdn-cgi/l/email-protection&quot; data-cfemail=&quot;aae2c3cdc2eae699849a&quot;&gt;[email&amp;#160;protected]&lt;/a&gt;&lt;script cf-hash='f9e31' type=&quot;text/javascript&quot;&gt;\n/* &lt;![CDATA[ */!function(){try{var t=&quot;currentScript&quot;in document?document.currentScript:function(){for(var t=document.getElementsByTagName(&quot;script&quot;),e=t.length;e--;)if(t[e].getAttribute(&quot;cf-hash&quot;))return t[e]}();if(t&amp;&amp;t.previousSibling){var e,r,n,i,c=t.previousSibling,a=c.getAttribute(&quot;data-cfemail&quot;);if(a){for(e=&quot;&quot;,r=parseInt(a.substr(0,2),16),n=2;a.length-n;n+=2)i=parseInt(a.substr(n,2),16)^r,e+=String.fromCharCode(i);e=document.createTextNode(e),c.parentNode.replaceChild(e,c)}}}catch(u){}}();/* ]]&gt; */&lt;/script&gt; \nFormat settings, CABAC : No \nFormat settings, ReFrames : 4 frames \nDuration : 21mn 12s \nBit rate : 426 Kbps \nMaximum bit rate : 1 897 Kbps \nWidth : 720 pixels \nHeight : 400 pixels \nDisplay aspect ratio : 16:9 \nFrame rate : 23.976 fps \nStream size : 64.6 MiB (87%) \nTitle : Community S05E09 x264 AAC E-Subs [GWC] \nWriting library : x264 core\n\nAudio \nFormat : AAC \nFormat profile : HE-AAC / LC \nDuration : 21mn 11s \nBit rate mode : Variable \nChannel(s) : 2 channels \nSampling rate : 48.0 KHz / 24.0 KHz \nStream size : 8.94 MiB (12%) \nLanguage : English \n\nText \nFormat : Timed Text \nTitle : English Subtitle by Elderfel \nLanguage : English \n","torrent":{"xt":"urn:btih:494eddfc0d650b3a268b647e8aea8dcf5f92b780","amp;dn":"Community+S05E09+x264+AAC+E-Subs+%5BGWC%5D.mp4","amp;tr":["udp%3A%2F%2Ftracker.openbittorrent.com%3A80","udp%3A%2F%2Fopen.demonii.com%3A1337","udp%3A%2F%2Ftracker.coppersurfer.tk%3A6969","udp%3A%2F%2Fexodus.desync.com%3A6969"],"infoHash":"494eddfc0d650b3a268b647e8aea8dcf5f92b780","infoHashBuffer":{"type":"Buffer","data":[73,78,221,252,13,101,11,58,38,139,100,126,138,234,141,207,95,146,183,128]},"announce":[],"urlList":[]}}